<svg width="86" height="106" viewBox="0 0 86 106" fill="none" xmlns="http://www.w3.org/2000/svg">
<mask id="path-1-outside-1_311_3" maskUnits="userSpaceOnUse" x="-1" y="-1" width="88" height="108" fill="black">
<rect fill="white" x="-1" y="-1" width="88" height="108"/>
<path d="M55.186 1.81599C56.8073 2.49866 58.4713 3.39466 60.178 4.504C61.8847 5.52799 63.4633 6.59466 64.914 7.70399C66.3647 8.81333 67.5593 9.92266 68.498 11.032C69.522 12.056 70.0767 12.9093 70.162 13.592C68.7113 13.2507 67.2607 13.0373 65.81 12.952C64.3593 12.7813 63.0367 12.696 61.842 12.696C58.002 12.696 54.162 13.6347 50.322 15.512C46.5673 17.3893 42.9833 19.9493 39.57 23.192C36.1567 26.4347 32.9993 30.232 30.098 34.584C27.1967 38.936 24.6793 43.5867 22.546 48.536C20.498 53.4853 18.8767 58.6053 17.682 63.896C16.4873 69.1867 15.89 74.392 15.89 79.512C15.89 86.168 16.9993 91.1173 19.218 94.36C21.4367 97.6027 24.6793 99.224 28.946 99.224C30.994 99.224 33.2127 98.7973 35.602 97.944C37.9913 97.176 40.4233 96.0667 42.898 94.616C45.3727 93.1653 47.8047 91.416 50.194 89.368C52.5833 87.32 54.802 85.0587 56.85 82.584C59.8367 79 62.5247 74.9467 64.914 70.424C67.3033 65.816 69.3087 60.952 70.93 55.832C72.6367 50.712 73.9167 45.464 74.77 40.088C75.7087 34.6267 76.178 29.2933 76.178 24.088C76.178 22.04 76.1353 20.3333 76.05 18.968C75.9647 17.5173 75.8367 16.3227 75.666 15.384C75.5807 14.36 75.4953 13.5493 75.41 12.952C75.3247 12.3547 75.2393 11.8427 75.154 11.416C76.178 11.928 77.2873 12.568 78.482 13.336C79.762 14.0187 80.914 15.0853 81.938 16.536C83.0473 17.9013 83.9433 19.736 84.626 22.04C85.394 24.344 85.778 27.3307 85.778 31C85.778 36.9733 85.0527 42.8613 83.602 48.664C82.2367 54.3813 80.274 59.8427 77.714 65.048C75.2393 70.2533 72.2953 75.1173 68.882 79.64C65.4687 84.1627 61.7993 88.1307 57.874 91.544C52.754 96.0667 47.2927 99.5653 41.49 102.04C35.6873 104.515 30.098 105.752 24.722 105.752C16.8713 105.752 10.8553 103.235 6.674 98.2C2.578 93.2507 0.530001 85.912 0.530001 76.184C0.530001 70.9787 1.08467 65.4747 2.194 59.672C3.38867 53.8693 5.01 48.152 7.058 42.52C9.19133 36.888 11.7087 31.5547 14.61 26.52C17.5113 21.4 20.6687 16.92 24.082 13.08C27.5807 9.15466 31.2927 6.03999 35.218 3.73599C39.2287 1.432 43.3247 0.279999 47.506 0.279999C48.8713 0.279999 50.1513 0.407997 51.346 0.663994C52.5407 0.834663 53.8207 1.21866 55.186 1.81599Z"/>
</mask>
<path d="M55.186 1.81599C56.8073 2.49866 58.4713 3.39466 60.178 4.504C61.8847 5.52799 63.4633 6.59466 64.914 7.70399C66.3647 8.81333 67.5593 9.92266 68.498 11.032C69.522 12.056 70.0767 12.9093 70.162 13.592C68.7113 13.2507 67.2607 13.0373 65.81 12.952C64.3593 12.7813 63.0367 12.696 61.842 12.696C58.002 12.696 54.162 13.6347 50.322 15.512C46.5673 17.3893 42.9833 19.9493 39.57 23.192C36.1567 26.4347 32.9993 30.232 30.098 34.584C27.1967 38.936 24.6793 43.5867 22.546 48.536C20.498 53.4853 18.8767 58.6053 17.682 63.896C16.4873 69.1867 15.89 74.392 15.89 79.512C15.89 86.168 16.9993 91.1173 19.218 94.36C21.4367 97.6027 24.6793 99.224 28.946 99.224C30.994 99.224 33.2127 98.7973 35.602 97.944C37.9913 97.176 40.4233 96.0667 42.898 94.616C45.3727 93.1653 47.8047 91.416 50.194 89.368C52.5833 87.32 54.802 85.0587 56.85 82.584C59.8367 79 62.5247 74.9467 64.914 70.424C67.3033 65.816 69.3087 60.952 70.93 55.832C72.6367 50.712 73.9167 45.464 74.77 40.088C75.7087 34.6267 76.178 29.2933 76.178 24.088C76.178 22.04 76.1353 20.3333 76.05 18.968C75.9647 17.5173 75.8367 16.3227 75.666 15.384C75.5807 14.36 75.4953 13.5493 75.41 12.952C75.3247 12.3547 75.2393 11.8427 75.154 11.416C76.178 11.928 77.2873 12.568 78.482 13.336C79.762 14.0187 80.914 15.0853 81.938 16.536C83.0473 17.9013 83.9433 19.736 84.626 22.04C85.394 24.344 85.778 27.3307 85.778 31C85.778 36.9733 85.0527 42.8613 83.602 48.664C82.2367 54.3813 80.274 59.8427 77.714 65.048C75.2393 70.2533 72.2953 75.1173 68.882 79.64C65.4687 84.1627 61.7993 88.1307 57.874 91.544C52.754 96.0667 47.2927 99.5653 41.49 102.04C35.6873 104.515 30.098 105.752 24.722 105.752C16.8713 105.752 10.8553 103.235 6.674 98.2C2.578 93.2507 0.530001 85.912 0.530001 76.184C0.530001 70.9787 1.08467 65.4747 2.194 59.672C3.38867 53.8693 5.01 48.152 7.058 42.52C9.19133 36.888 11.7087 31.5547 14.61 26.52C17.5113 21.4 20.6687 16.92 24.082 13.08C27.5807 9.15466 31.2927 6.03999 35.218 3.73599C39.2287 1.432 43.3247 0.279999 47.506 0.279999C48.8713 0.279999 50.1513 0.407997 51.346 0.663994C52.5407 0.834663 53.8207 1.21866 55.186 1.81599Z" fill="url(#paint0_linear_311_3)"/>
<path d="M55.186 1.81599L54.7851 2.73224L54.7979 2.73763L55.186 1.81599ZM60.178 4.504L59.633 5.34244L59.6481 5.35224L59.6635 5.36149L60.178 4.504ZM64.914 7.70399L64.3066 8.49835L64.3066 8.49835L64.914 7.70399ZM68.498 11.032L67.7346 11.6779L67.7615 11.7097L67.7909 11.7391L68.498 11.032ZM70.162 13.592L69.933 14.5654L71.3326 14.8947L71.1543 13.468L70.162 13.592ZM65.81 12.952L65.6932 13.9451L65.7222 13.9486L65.7513 13.9503L65.81 12.952ZM50.322 15.512L49.8828 14.6136L49.8748 14.6176L50.322 15.512ZM39.57 23.192L38.8813 22.467L38.8813 22.467L39.57 23.192ZM30.098 34.584L30.9301 35.1387L30.9301 35.1387L30.098 34.584ZM22.546 48.536L21.6277 48.1402L21.6248 48.1469L21.622 48.1536L22.546 48.536ZM17.682 63.896L16.7066 63.6757L16.7066 63.6757L17.682 63.896ZM19.218 94.36L18.3927 94.9247L19.218 94.36ZM35.602 97.944L35.296 96.992L35.2807 96.9969L35.2657 97.0023L35.602 97.944ZM42.898 94.616L43.4037 95.4787L42.898 94.616ZM50.194 89.368L49.5432 88.6087L49.5432 88.6087L50.194 89.368ZM56.85 82.584L56.0818 81.9438L56.0796 81.9464L56.85 82.584ZM64.914 70.424L65.7982 70.8911L65.8018 70.8843L64.914 70.424ZM70.93 55.832L69.9813 55.5158L69.9789 55.5229L69.9767 55.5301L70.93 55.832ZM74.77 40.088L73.7844 39.9186L73.7824 39.9312L74.77 40.088ZM76.05 18.968L75.0517 19.0267L75.052 19.0304L76.05 18.968ZM75.666 15.384L74.6695 15.467L74.6735 15.5153L74.6821 15.5629L75.666 15.384ZM75.41 12.952L76.4 12.8106L76.4 12.8106L75.41 12.952ZM75.154 11.416L75.6012 10.5216L73.7724 9.60717L74.1734 11.6121L75.154 11.416ZM78.482 13.336L77.9412 14.1772L77.9755 14.1992L78.0114 14.2184L78.482 13.336ZM81.938 16.536L81.121 17.1127L81.1405 17.1403L81.1619 17.1666L81.938 16.536ZM84.626 22.04L83.6672 22.3241L83.672 22.3402L83.6773 22.3562L84.626 22.04ZM83.602 48.664L82.6318 48.4214L82.6294 48.4317L83.602 48.664ZM77.714 65.048L76.8166 64.6066L76.8109 64.6186L77.714 65.048ZM57.874 91.544L57.2178 90.7894L57.212 90.7945L57.874 91.544ZM6.674 98.2L5.90361 98.8376L5.90471 98.8389L6.674 98.2ZM2.194 59.672L1.21454 59.4703L1.21312 59.4773L1.21179 59.4842L2.194 59.672ZM7.058 42.52L6.12276 42.1657L6.11821 42.1783L7.058 42.52ZM14.61 26.52L15.4765 27.0193L15.48 27.013L14.61 26.52ZM24.082 13.08L23.3355 12.4146L23.3346 12.4156L24.082 13.08ZM35.218 3.73599L34.7199 2.86885L34.7118 2.87358L35.218 3.73599ZM51.346 0.663994L51.1365 1.6418L51.1703 1.64905L51.2046 1.65394L51.346 0.663994ZM54.7979 2.73763C56.3569 3.39403 57.9685 4.26053 59.633 5.34244L60.723 3.66555C58.9741 2.5288 57.2578 1.6033 55.5741 0.894359L54.7979 2.73763ZM59.6635 5.36149C61.3409 6.3679 62.8882 7.41371 64.3066 8.49835L65.5215 6.90964C64.0385 5.77561 62.4285 4.68809 60.6925 3.6465L59.6635 5.36149ZM64.3066 8.49835C65.7139 9.57457 66.8525 10.6354 67.7346 11.6779L69.2614 10.3861C68.2662 9.20989 67.0154 8.05208 65.5215 6.90964L64.3066 8.49835ZM67.7909 11.7391C68.7999 12.7481 69.1294 13.3935 69.1697 13.716L71.1543 13.468C71.0239 12.4252 70.2441 11.3639 69.2051 10.3249L67.7909 11.7391ZM70.391 12.6186C68.8859 12.2644 67.3782 12.0425 65.8687 11.9537L65.7513 13.9503C67.1431 14.0321 68.5368 14.2369 69.933 14.5654L70.391 12.6186ZM65.9268 11.9588C64.4456 11.7846 63.0832 11.696 61.842 11.696V13.696C62.9902 13.696 64.2731 13.7781 65.6932 13.9451L65.9268 11.9588ZM61.842 11.696C57.8333 11.696 53.8439 12.6771 49.8828 14.6136L50.7612 16.4104C54.4801 14.5923 58.1707 13.696 61.842 13.696V11.696ZM49.8748 14.6176C46.0217 16.5441 42.3577 19.1644 38.8813 22.467L40.2588 23.917C43.609 20.7343 47.113 18.2345 50.7692 16.4064L49.8748 14.6176ZM38.8813 22.467C35.4084 25.7662 32.2041 29.6221 29.266 34.0293L30.9301 35.1387C33.7946 30.8419 36.9049 27.1031 40.2588 23.917L38.8813 22.467ZM29.266 34.0293C26.3301 38.433 23.7842 43.1371 21.6277 48.1402L23.4643 48.9318C25.5745 44.0363 28.0632 39.4389 30.9301 35.1387L29.266 34.0293ZM21.622 48.1536C19.552 53.1561 17.9136 58.3304 16.7066 63.6757L18.6574 64.1163C19.8398 58.8803 21.444 53.8146 23.47 48.9184L21.622 48.1536ZM16.7066 63.6757C15.4965 69.0344 14.89 74.3136 14.89 79.512H16.89C16.89 74.4704 17.4781 69.3389 18.6574 64.1163L16.7066 63.6757ZM14.89 79.512C14.89 86.2444 16.0057 91.4359 18.3927 94.9247L20.0433 93.7953C17.993 90.7987 16.89 86.0916 16.89 79.512H14.89ZM18.3927 94.9247C20.8159 98.4662 24.3827 100.224 28.946 100.224V98.224C24.976 98.224 22.0575 96.7391 20.0433 93.7953L18.3927 94.9247ZM28.946 100.224C31.1323 100.224 33.4659 99.7688 35.9383 98.8857L35.2657 97.0023C32.9595 97.8259 30.8557 98.224 28.946 98.224V100.224ZM35.908 98.896C38.376 98.1027 40.8747 96.9612 43.4037 95.4787L42.3923 93.7533C39.9719 95.1721 37.6066 96.2493 35.296 96.992L35.908 98.896ZM43.4037 95.4787C45.9344 93.9952 48.4146 92.2103 50.8448 90.1273L49.5432 88.6087C47.1948 90.6217 44.8109 92.3355 42.3923 93.7533L43.4037 95.4787ZM50.8448 90.1273C53.2783 88.0414 55.5368 85.7392 57.6204 83.2216L56.0796 81.9464C54.0672 84.3781 51.8884 86.5986 49.5432 88.6087L50.8448 90.1273ZM57.6182 83.2242C60.6535 79.5818 63.3794 75.4695 65.7982 70.8911L64.0298 69.9569C61.6699 74.4238 59.0198 78.4182 56.0818 81.9438L57.6182 83.2242ZM65.8018 70.8843C68.2183 66.2238 70.2453 61.3066 71.8833 56.1339L69.9767 55.5301C68.372 60.5974 66.3883 65.4082 64.0262 69.9637L65.8018 70.8843ZM71.8787 56.1482C73.6028 50.9758 74.8958 45.6744 75.7576 40.2448L73.7824 39.9312C72.9376 45.2536 71.6705 50.4482 69.9813 55.5158L71.8787 56.1482ZM75.7556 40.2574C76.7032 34.7437 77.178 29.3536 77.178 24.088H75.178C75.178 29.233 74.7141 34.5096 73.7845 39.9186L75.7556 40.2574ZM77.178 24.088C77.178 22.0283 77.1352 20.2992 77.0481 18.9056L75.052 19.0304C75.1355 20.3675 75.178 22.0517 75.178 24.088H77.178ZM77.0483 18.9093C76.9617 17.4368 76.8305 16.1983 76.6499 15.2051L74.6821 15.5629C74.8429 16.447 74.9677 17.5979 75.0517 19.0267L77.0483 18.9093ZM76.6626 15.3009C76.5765 14.2689 76.4893 13.4361 76.4 12.8106L74.4201 13.0934C74.5014 13.6626 74.5848 14.4511 74.6695 15.467L76.6626 15.3009ZM76.4 12.8106C76.3129 12.2014 76.2246 11.6701 76.1346 11.2199L74.1734 11.6121C74.254 12.0152 74.3364 12.508 74.4201 13.0934L76.4 12.8106ZM74.7068 12.3104C75.6921 12.8031 76.7699 13.4242 77.9412 14.1772L79.0228 12.4948C77.8047 11.7118 76.6639 11.0529 75.6012 10.5216L74.7068 12.3104ZM78.0114 14.2184C79.1262 14.8129 80.1672 15.7614 81.121 17.1127L82.755 15.9593C81.6608 14.4092 80.3978 13.2244 78.9526 12.4536L78.0114 14.2184ZM81.1619 17.1666C82.1637 18.3995 83.0091 20.1031 83.6672 22.3241L85.5848 21.7559C84.8775 19.3689 83.931 17.4031 82.7141 15.9054L81.1619 17.1666ZM83.6773 22.3562C84.3987 24.5203 84.778 27.389 84.778 31H86.778C86.778 27.2723 86.3893 24.1677 85.5747 21.7238L83.6773 22.3562ZM84.778 31C84.778 36.8915 84.0627 42.698 82.6319 48.4215L84.5721 48.9065C86.0426 43.0247 86.778 37.0552 86.778 31H84.778ZM82.6294 48.4317C81.281 54.0778 79.3434 59.4689 76.8167 64.6067L78.6114 65.4893C81.2046 60.2164 83.1923 54.6849 84.5747 48.8963L82.6294 48.4317ZM76.8109 64.6186C74.3647 69.7639 71.4557 74.5698 68.0838 79.0376L69.6802 80.2424C73.135 75.6648 76.1139 70.7427 78.6171 65.4774L76.8109 64.6186ZM68.0838 79.0376C64.7087 83.5096 61.0862 87.4256 57.2178 90.7894L58.5302 92.2986C62.5124 88.8358 66.2286 84.8157 69.6802 80.2424L68.0838 79.0376ZM57.212 90.7945C52.1655 95.2522 46.7941 98.6908 41.0977 101.12L41.8823 102.96C47.7912 100.44 53.3425 96.8811 58.536 92.2935L57.212 90.7945ZM41.0977 101.12C35.3979 103.551 29.9419 104.752 24.722 104.752V106.752C30.2541 106.752 35.9768 105.478 41.8823 102.96L41.0977 101.12ZM24.722 104.752C17.1032 104.752 11.3964 102.321 7.44329 97.5611L5.90471 98.8389C10.3143 104.148 16.6395 106.752 24.722 106.752V104.752ZM7.4444 97.5624C3.55639 92.8644 1.53 85.794 1.53 76.184H-0.469999C-0.469999 86.03 1.59961 93.6369 5.90361 98.8376L7.4444 97.5624ZM1.53 76.184C1.53 71.0494 2.07716 65.6087 3.17621 59.8598L1.21179 59.4842C0.0921764 65.3407 -0.469999 70.9079 -0.469999 76.184H1.53ZM3.17346 59.8737C4.35821 54.1191 5.96621 48.4486 7.99779 42.8617L6.11821 42.1783C4.05379 47.8554 2.41912 53.6195 1.21454 59.4703L3.17346 59.8737ZM7.99316 42.8742C10.1082 37.2905 12.6028 32.0059 15.4764 27.0193L13.7436 26.0207C10.8145 31.1035 8.27447 36.4855 6.12284 42.1658L7.99316 42.8742ZM15.48 27.013C18.3515 21.9456 21.469 17.5248 24.8294 13.7444L23.3346 12.4156C19.8683 16.3152 16.6711 20.8544 13.74 26.027L15.48 27.013ZM24.8285 13.7454C28.2684 9.88601 31.9015 6.84219 35.7242 4.59841L34.7118 2.87358C30.6839 5.2378 26.893 8.42331 23.3355 12.4146L24.8285 13.7454ZM35.7161 4.6031C39.5917 2.3767 43.5176 1.28 47.506 1.28V-0.720001C43.1318 -0.720001 38.8656 0.487296 34.7199 2.86889L35.7161 4.6031ZM47.506 1.28C48.809 1.28 50.0182 1.40216 51.1365 1.6418L51.5555 -0.313809C50.2845 -0.586168 48.9337 -0.720001 47.506 -0.720001V1.28ZM51.2046 1.65394C52.2918 1.80926 53.484 2.1629 54.7852 2.73215L55.5868 0.899836C54.1573 0.274428 52.7895 -0.139935 51.4874 -0.325955L51.2046 1.65394Z" fill="#58A3AD" mask="url(#path-1-outside-1_311_3)"/>
<defs>
<linearGradient id="paint0_linear_311_3" x1="29.5" y1="-8" x2="29.5" y2="107" gradientUnits="userSpaceOnUse">
<stop stop-color="white"/>
<stop offset="1" stop-color="#58A3AD"/>
</linearGradient>
</defs>
</svg>
